<?xml version="1.0" encoding="UTF-8" standalone="no"?>
<svg width="21px" height="21px" viewBox="0 0 21 21" version="1.1" xmlns="http://www.w3.org/2000/svg" xmlns:xlink="http://www.w3.org/1999/xlink" xmlns:sketch="http://www.bohemiancoding.com/sketch/ns">
    <!-- Generator: Sketch 3.3.2 (12043) - http://www.bohemiancoding.com/sketch -->
    <title>ios7-contact-outline</title>
    <desc>Created with Sketch.</desc>
    <defs></defs>
    <g id="Welcome" stroke="none" stroke-width="1" fill="none" fill-rule="evenodd" sketch:type="MSPage">
        <g id="Sign-Up" sketch:type="MSArtboardGroup" transform="translate(-603.000000, -611.000000)" fill="#FFC153">
            <g id="ios7-contact-outline" sketch:type="MSLayerGroup" transform="translate(603.500000, 611.695312)">
                <path d="M10,0 C4.47596154,0 0,4.47596154 0,10 C0,15.5240385 4.47596154,20 10,20 C15.5240385,20 20,15.5240385 20,10 C20,4.47596154 15.5240385,0 10,0 L10,0 Z M10,0.831730769 C15.0528846,0.831730769 19.1682692,4.94230769 19.1682692,10 C19.1682692,12.2355769 18.3653846,14.2836538 17.0336538,15.875 C16.0721154,15.4807692 13.8653846,14.7163462 12.5673077,14.3317308 C12.4519231,14.2980769 12.4375,14.2884615 12.4375,13.8173077 C12.4375,13.4278846 12.5961538,13.0336538 12.7548077,12.6971154 C12.9278846,12.3365385 13.125,11.7259615 13.1971154,11.1778846 C13.3990385,10.9423077 13.6778846,10.4807692 13.8509615,9.59615385 C14.0048077,8.81730769 13.9326923,8.53365385 13.8317308,8.26923077 C13.8221154,8.24038462 13.8076923,8.21153846 13.8028846,8.1875 C13.7644231,8.00480769 13.8173077,7.05769231 13.9519231,6.32211538 C14.0432692,5.81730769 13.9278846,4.74519231 13.2355769,3.85576923 C12.7980769,3.29326923 11.9567308,2.60576923 10.4230769,2.50961538 L9.58173077,2.50961538 C8.07211538,2.60576923 7.23557692,3.29326923 6.79326923,3.85576923 C6.09615385,4.74519231 5.98076923,5.81730769 6.07211538,6.32211538 C6.20673077,7.05769231 6.25961538,8.00480769 6.22115385,8.1875 C6.21153846,8.22115385 6.20192308,8.24519231 6.19230769,8.27403846 C6.09134615,8.53846154 6.01442308,8.82211538 6.17307692,9.60096154 C6.35096154,10.4855769 6.625,10.9471154 6.82692308,11.1826923 C6.89903846,11.7307692 7.10096154,12.3365385 7.26923077,12.7019231 C7.39423077,12.9663462 7.45192308,13.3269231 7.45192308,13.8365385 C7.45192308,14.3125 7.43269231,14.3173077 7.32692308,14.3509615 C5.97596154,14.75 3.83653846,15.5192308 2.98076923,15.8894231 C1.63942308,14.2932692 0.831730769,12.2403846 0.831730769,10 C0.831730769,4.94711538 4.94711538,0.831730769 10,0.831730769 L10,0.831730769 Z" id="Shape" sketch:type="MSShapeGroup"></path>
            </g>
        </g>
    </g>
</svg>