<?xml version="1.0" encoding="UTF-8" standalone="no"?>
<svg width="18px" height="24px" viewBox="0 0 18 24" version="1.1" xmlns="http://www.w3.org/2000/svg" xmlns:xlink="http://www.w3.org/1999/xlink" xmlns:sketch="http://www.bohemiancoding.com/sketch/ns">
    <!-- Generator: Sketch 3.3.2 (12043) - http://www.bohemiancoding.com/sketch -->
    <title>ios7-locked-outline copy</title>
    <desc>Created with Sketch.</desc>
    <defs></defs>
    <g id="Welcome" stroke="none" stroke-width="1" fill="none" fill-rule="evenodd" sketch:type="MSPage">
        <g id="Sign-Up" sketch:type="MSArtboardGroup" transform="translate(-604.000000, -675.000000)" fill="#FFC153">
            <g id="ios7-locked-outline-copy" sketch:type="MSLayerGroup" transform="translate(604.000000, 675.000000)">
                <g id="Group" sketch:type="MSShapeGroup">
                    <path d="M14.85,10.1538462 L14.85,6 C14.85,2.68846154 12.22875,0 9,0 C5.765625,0 3.15,2.68846154 3.15,6 L3.15,10.1538462 L0,10.1538462 L0,24 L18,24 L18,10.1538462 L14.85,10.1538462 L14.85,10.1538462 Z M4.05,6 C4.05,3.20192308 6.271875,0.923076923 9,0.923076923 C11.728125,0.923076923 13.95,3.20192308 13.95,6 L13.95,10.1538462 L4.05,10.1538462 L4.05,6 L4.05,6 Z M17.1,23.0769231 L0.9,23.0769231 L0.9,11.0769231 L17.1,11.0769231 L17.1,23.0769231 L17.1,23.0769231 Z" id="Shape"></path>
                    <path d="M10.6,15.8461538 C10.6,14.825 9.795625,14 8.8,14 C7.804375,14 7,14.825 7,15.8461538 C7,16.7057692 7.57375,17.4269231 8.35,17.6346154 L8.35,20 C8.35,20.2538462 8.5525,20.4615385 8.8,20.4615385 C9.0475,20.4615385 9.25,20.2538462 9.25,20 L9.25,17.6346154 C10.02625,17.4269231 10.6,16.7057692 10.6,15.8461538 L10.6,15.8461538 Z M8.8,16.7692308 C8.305,16.7692308 7.9,16.3538462 7.9,15.8461538 C7.9,15.3384615 8.305,14.9230769 8.8,14.9230769 C9.295,14.9230769 9.7,15.3384615 9.7,15.8461538 C9.7,16.3538462 9.295,16.7692308 8.8,16.7692308 L8.8,16.7692308 Z" id="Shape"></path>
                </g>
            </g>
        </g>
    </g>
</svg>